[Header]                  # Header keywords are followed by a single value
FileType htr              # single word string
DataType HTRS             # Hierarchical translations followed by rotations and Scale
FileVersion 1             # integer
NumSegments   22        # integer
NumFrames  7          # integer
DataFrameRate    60      # integer
EulerRotationOrder ZYX    # one word string
CalibrationUnits mm   # one word string
RotationUnits Degrees     # one word string
GlobalAxisofGravity Y        # character, X or Y or Z
BoneLengthAxis Y
ScaleFactor 1.0000
[SegmentNames&Hierarchy]
#CHILD         PARENT
LowerTorso	GLOBAL
MidTorso1	LowerTorso
MidTorso2	MidTorso1
UpperTorso	MidTorso2
Neck	UpperTorso
Head	Neck
LCollar	UpperTorso
LUpArm	LCollar
LLowArm	LUpArm
LHand	LLowArm
RCollar	UpperTorso
RUpArm	RCollar
RLowArm	RUpArm
RHand	RLowArm
RThigh	LowerTorso
RLowLeg	RThigh
RFoot	RLowLeg
RToe	RFoot
LThigh	LowerTorso
LLowLeg	LThigh
LFoot	LLowLeg
LToe	LFoot
[BasePosition]
#SegmentName Tx, Ty, Tz, Rx, Ry, Rz, BoneLength
LowerTorso	245.857281	950.546486	248.637529	3.098927	-0.002210	0.042162	59.711333	
MidTorso1	0.000000	59.711333	0.000000	12.937915	-0.002675	-0.030860	59.789096	
MidTorso2	0.000000	59.789096	0.000000	-8.588562	0.003459	0.011437	83.428957	
UpperTorso	0.000000	83.428957	0.000000	-7.932331	-0.001012	-0.030752	241.957510	
Neck	0.000000	241.957510	0.000000	-0.094097	0.000027	0.097203	231.829248	
Head	0.000000	231.829248	0.000000	90.077927	-0.000108	-0.089730	91.574582	
LCollar	6.813599	237.360039	0.023153	2.387721	-0.015547	-90.013255	183.371476	
LUpArm	0.000000	183.371476	0.000000	5.326590	-0.698152	6.338799	275.550262	
LLowArm	0.000000	275.550262	0.000000	0.023606	-0.000027	0.019344	209.826044	
LHand	0.000000	209.826044	0.000000	0.056212	0.000012	-0.012212	145.298309	
RCollar	-7.320367	237.102711	-0.039007	12.450709	0.004248	90.115141	167.861514	
RUpArm	0.000000	167.861514	0.000000	-6.122028	-0.820027	-2.646363	291.470253	
RLowArm	0.000000	291.470253	0.000000	0.000001	0.000000	-0.000274	217.757286	
RHand	0.000000	217.757286	0.000000	0.000373	0.000000	0.000511	137.536656	
RThigh	-124.450736	-52.205152	84.621319	5.924306	0.309605	177.207098	421.029795	
RLowLeg	0.000000	421.029795	0.000000	-15.759515	-0.017515	3.120486	365.105663	
RFoot	0.000000	365.105663	0.000000	55.897303	0.149984	-4.373210	148.323736	
RToe	0.000000	148.323736	0.000000	45.100933	2.167436	3.449341	115.306227	
LThigh	124.374466	-52.388373	84.621456	5.928259	-0.221338	-178.140447	426.796764	
LLowLeg	0.000000	426.796764	0.000000	-15.759694	0.017551	-3.120303	361.153822	
LFoot	0.000000	361.153822	0.000000	55.897848	-0.150027	4.373120	146.718976	
LToe	0.000000	146.718976	0.000000	45.100748	-2.167253	-3.449489	114.060784	
#Beginning of Data. Separated by tabs
[LowerTorso]
#Fr     Tx      Ty      Tz      Rx      Ry      Rz      SF
428	-126.053345	9.818816	238.653015	7.102556	44.149841	-1.853103	1.000000	
429	-132.781799	11.584130	230.921234	8.341654	44.497864	-1.389814	1.000000	
430	-138.635895	13.852530	223.679871	9.194097	44.697243	-1.174503	1.000000	
431	-143.440765	16.274921	217.124878	9.657744	44.711010	-1.182621	1.000000	
432	-147.037842	18.549086	211.410599	9.781926	44.502899	-1.328181	1.000000	
433	-149.338058	20.532736	206.627533	9.609922	44.063206	-1.526928	1.000000	
434	-150.363495	22.154547	202.801880	9.171704	43.439663	-1.724286	1.000000	
[MidTorso1]
#Fr     Tx      Ty      Tz      Rx      Ry      Rz      SF
428	0.000000	0.000000	0.000000	3.802770	-2.125170	0.240231	1.000000	
429	0.000000	0.000000	0.000000	4.098920	-2.141687	0.367810	1.000000	
430	0.000000	0.000000	0.000000	4.371332	-2.171206	0.524570	1.000000	
431	0.000000	0.000000	0.000000	4.591309	-2.203252	0.680685	1.000000	
432	0.000000	0.000000	0.000000	4.735833	-2.212147	0.795771	1.000000	
433	0.000000	0.000000	0.000000	4.801904	-2.175328	0.847607	1.000000	
434	0.000000	0.000000	0.000000	4.802633	-2.095461	0.836806	1.000000	
[MidTorso2]
#Fr     Tx      Ty      Tz      Rx      Ry      Rz      SF
428	0.000000	0.000000	0.000000	3.808275	-2.137992	-0.079882	1.000000	
429	0.000000	0.000000	0.000000	4.104513	-2.173438	0.043800	1.000000	
430	0.000000	0.000000	0.000000	4.377030	-2.226093	0.194395	1.000000	
431	0.000000	0.000000	0.000000	4.597069	-2.281138	0.343974	1.000000	
432	0.000000	0.000000	0.000000	4.741518	-2.307150	0.456446	1.000000	
433	0.000000	0.000000	0.000000	4.807307	-2.278498	0.513210	1.000000	
434	0.000000	0.000000	0.000000	4.807602	-2.197916	0.514474	1.000000	
[UpperTorso]
#Fr     Tx      Ty      Tz      Rx      Ry      Rz      SF
428	0.000000	0.000000	0.000000	3.814802	-2.104474	-0.374038	1.000000	
429	0.000000	0.000000	0.000000	4.111336	-2.156492	-0.256414	1.000000	
430	0.000000	0.000000	0.000000	4.384229	-2.229280	-0.114516	1.000000	
431	0.000000	0.000000	0.000000	4.604616	-2.304324	0.026044	1.000000	
432	0.000000	0.000000	0.000000	4.749204	-2.345531	0.133859	1.000000	
433	0.000000	0.000000	0.000000	4.814795	-2.324954	0.194049	1.000000	
434	0.000000	0.000000	0.000000	4.814601	-2.245318	0.206440	1.000000	
[Neck]
#Fr     Tx      Ty      Tz      Rx      Ry      Rz      SF
428	0.000000	0.000000	0.000000	-9.483269	-21.946201	4.099148	1.000000	
429	0.000000	0.000000	0.000000	-10.893840	-21.980495	4.257884	1.000000	
430	0.000000	0.000000	0.000000	-11.863353	-21.926624	4.446242	1.000000	
431	0.000000	0.000000	0.000000	-12.285343	-21.749357	4.628428	1.000000	
432	0.000000	0.000000	0.000000	-12.105948	-21.491093	4.764741	1.000000	
433	0.000000	0.000000	0.000000	-11.378531	-21.239082	4.807369	1.000000	
434	0.000000	0.000000	0.000000	-10.249733	-21.083931	4.717331	1.000000	
[Head]
#Fr     Tx      Ty      Tz      Rx      Ry      Rz      SF
428	0.000000	0.000000	0.000000	3.200085	6.084844	0.920144	1.000000	
429	0.000000	0.000000	0.000000	4.089955	6.125192	0.975583	1.000000	
430	0.000000	0.000000	0.000000	4.800795	6.117804	1.009415	1.000000	
431	0.000000	0.000000	0.000000	5.247464	6.053485	1.008661	1.000000	
432	0.000000	0.000000	0.000000	5.388202	5.919925	0.960790	1.000000	
433	0.000000	0.000000	0.000000	5.250476	5.731431	0.872171	1.000000	
434	0.000000	0.000000	0.000000	4.887901	5.534157	0.764646	1.000000	
[LCollar]
#Fr     Tx      Ty      Tz      Rx      Ry      Rz      SF
428	0.000000	0.000000	0.000000	6.575925	1.029820	-8.861342	1.000000	
429	0.000000	0.000000	0.000000	6.474426	1.095254	-9.560678	1.000000	
430	0.000000	0.000000	0.000000	6.364928	1.140227	-10.114527	1.000000	
431	0.000000	0.000000	0.000000	6.265709	1.158844	-10.436630	1.000000	
432	0.000000	0.000000	0.000000	6.187509	1.154095	-10.524274	1.000000	
433	0.000000	0.000000	0.000000	6.150461	1.140094	-10.461152	1.000000	
434	0.000000	0.000000	0.000000	6.132892	1.123363	-10.340096	1.000000	
[LUpArm]
#Fr     Tx      Ty      Tz      Rx      Ry      Rz      SF
428	0.000000	0.000000	0.000000	58.277508	25.392767	-36.531681	1.000000	
429	0.000000	0.000000	0.000000	58.873005	24.581581	-36.311020	1.000000	
430	0.000000	0.000000	0.000000	59.062557	24.028597	-36.452202	1.000000	
431	0.000000	0.000000	0.000000	58.889465	23.806627	-36.852104	1.000000	
432	0.000000	0.000000	0.000000	58.485039	23.955225	-37.328709	1.000000	
433	0.000000	0.000000	0.000000	57.958733	24.418745	-37.746777	1.000000	
434	0.000000	0.000000	0.000000	57.375057	25.081503	-38.085178	1.000000	
[LLowArm]
#Fr     Tx      Ty      Tz      Rx      Ry      Rz      SF
428	0.000000	0.000000	0.000000	117.376221	-0.010882	-0.018010	1.000000	
429	0.000000	0.000000	0.000000	116.281166	-0.010989	-0.017800	1.000000	
430	0.000000	0.000000	0.000000	115.502594	-0.011063	-0.017650	1.000000	
431	0.000000	0.000000	0.000000	115.043808	-0.011105	-0.017561	1.000000	
432	0.000000	0.000000	0.000000	114.860344	-0.011122	-0.017525	1.000000	
433	0.000000	0.000000	0.000000	114.930901	-0.011115	-0.017539	1.000000	
434	0.000000	0.000000	0.000000	115.252159	-0.011086	-0.017601	1.000000	
[LHand]
#Fr     Tx      Ty      Tz      Rx      Ry      Rz      SF
428	0.000000	0.000000	0.000000	9.939172	20.299116	8.963127	1.000000	
429	0.000000	0.000000	0.000000	10.013614	20.578407	9.110325	1.000000	
430	0.000000	0.000000	0.000000	9.968107	20.679098	9.143828	1.000000	
431	0.000000	0.000000	0.000000	10.007305	20.357136	9.327670	1.000000	
432	0.000000	0.000000	0.000000	10.215523	19.453310	9.801139	1.000000	
433	0.000000	0.000000	0.000000	10.529599	17.975758	10.466187	1.000000	
434	0.000000	0.000000	0.000000	10.817331	16.149500	11.034011	1.000000	
[RCollar]
#Fr     Tx      Ty      Tz      Rx      Ry      Rz      SF
428	0.000000	0.000000	0.000000	10.832147	-1.795100	9.297898	1.000000	
429	0.000000	0.000000	0.000000	11.325339	-1.803760	8.931920	1.000000	
430	0.000000	0.000000	0.000000	11.757079	-1.846294	8.799780	1.000000	
431	0.000000	0.000000	0.000000	12.090167	-1.916333	8.873348	1.000000	
432	0.000000	0.000000	0.000000	12.265059	-2.004568	9.140823	1.000000	
433	0.000000	0.000000	0.000000	12.247706	-2.102452	9.592627	1.000000	
434	0.000000	0.000000	0.000000	12.017023	-2.203756	10.240021	1.000000	
[RUpArm]
#Fr     Tx      Ty      Tz      Rx      Ry      Rz      SF
428	0.000000	0.000000	0.000000	37.079632	45.294739	37.467739	1.000000	
429	0.000000	0.000000	0.000000	37.631519	46.655277	37.252251	1.000000	
430	0.000000	0.000000	0.000000	38.291283	47.314335	37.208054	1.000000	
431	0.000000	0.000000	0.000000	39.020393	47.226669	37.459450	1.000000	
432	0.000000	0.000000	0.000000	39.704494	46.441025	38.023682	1.000000	
433	0.000000	0.000000	0.000000	40.167435	45.064419	38.779842	1.000000	
434	0.000000	0.000000	0.000000	40.306908	43.195274	39.566559	1.000000	
[RLowArm]
#Fr     Tx      Ty      Tz      Rx      Ry      Rz      SF
428	0.000000	0.000000	0.000000	119.328369	0.000170	0.000224	1.000000	
429	0.000000	0.000000	0.000000	117.508354	0.000172	0.000219	1.000000	
430	0.000000	0.000000	0.000000	115.381195	0.000174	0.000213	1.000000	
431	0.000000	0.000000	0.000000	113.143631	0.000176	0.000207	1.000000	
432	0.000000	0.000000	0.000000	111.007195	0.000177	0.000201	1.000000	
433	0.000000	0.000000	0.000000	109.157112	0.000179	0.000196	1.000000	
434	0.000000	0.000000	0.000000	107.687141	0.000180	0.000192	1.000000	
[RHand]
#Fr     Tx      Ty      Tz      Rx      Ry      Rz      SF
428	0.000000	0.000000	0.000000	-5.984956	-3.648595	-21.995674	1.000000	
429	0.000000	0.000000	0.000000	-5.825222	-2.394464	-22.326063	1.000000	
430	0.000000	0.000000	0.000000	-5.586775	-1.835604	-22.727594	1.000000	
431	0.000000	0.000000	0.000000	-5.295302	-1.960859	-23.054920	1.000000	
432	0.000000	0.000000	0.000000	-4.938725	-2.573884	-23.186747	1.000000	
433	0.000000	0.000000	0.000000	-4.529054	-3.378625	-23.177034	1.000000	
434	0.000000	0.000000	0.000000	-4.114566	-4.134072	-23.196869	1.000000	
[RThigh]
#Fr     Tx      Ty      Tz      Rx      Ry      Rz      SF
428	0.000000	0.000000	0.000000	18.025492	8.258813	2.867227	1.000000	
429	0.000000	0.000000	0.000000	18.928736	8.744937	2.616365	1.000000	
430	0.000000	0.000000	0.000000	19.568069	9.329975	2.498710	1.000000	
431	0.000000	0.000000	0.000000	19.928516	9.778434	2.511139	1.000000	
432	0.000000	0.000000	0.000000	20.004765	9.870011	2.584515	1.000000	
433	0.000000	0.000000	0.000000	19.782282	9.526797	2.652036	1.000000	
434	0.000000	0.000000	0.000000	19.240772	8.737539	2.657194	1.000000	
[RLowLeg]
#Fr     Tx      Ty      Tz      Rx      Ry      Rz      SF
428	0.000000	0.000000	0.000000	-26.632383	0.000019	-0.000007	1.000000	
429	0.000000	0.000000	0.000000	-25.553076	0.000018	-0.000007	1.000000	
430	0.000000	0.000000	0.000000	-24.356794	0.000017	-0.000006	1.000000	
431	0.000000	0.000000	0.000000	-23.097538	0.000016	-0.000006	1.000000	
432	0.000000	0.000000	0.000000	-21.828054	0.000016	-0.000005	1.000000	
433	0.000000	0.000000	0.000000	-20.617289	0.000015	-0.000005	1.000000	
434	0.000000	0.000000	0.000000	-19.463766	0.000014	-0.000005	1.000000	
[RFoot]
#Fr     Tx      Ty      Tz      Rx      Ry      Rz      SF
428	0.000000	0.000000	0.000000	-7.416618	2.810421	-2.635209	1.000000	
429	0.000000	0.000000	0.000000	-6.986056	2.313997	-2.490879	1.000000	
430	0.000000	0.000000	0.000000	-6.970573	1.739542	-1.991768	1.000000	
431	0.000000	0.000000	0.000000	-7.279369	1.137787	-1.411501	1.000000	
432	0.000000	0.000000	0.000000	-7.761433	0.677307	-0.947611	1.000000	
433	0.000000	0.000000	0.000000	-8.313919	0.492806	-0.716604	1.000000	
434	0.000000	0.000000	0.000000	-8.886896	0.649937	-0.698321	1.000000	
[RToe]
#Fr     Tx      Ty      Tz      Rx      Ry      Rz      SF
428	0.000000	0.000000	0.000000	10.019117	0.000004	0.000005	1.000000	
429	0.000000	0.000000	0.000000	10.129440	0.000004	0.000005	1.000000	
430	0.000000	0.000000	0.000000	10.163234	0.000004	0.000005	1.000000	
431	0.000000	0.000000	0.000000	10.106199	0.000004	0.000005	1.000000	
432	0.000000	0.000000	0.000000	9.915196	0.000004	0.000005	1.000000	
433	0.000000	0.000000	0.000000	9.646567	0.000004	0.000005	1.000000	
434	0.000000	0.000000	0.000000	9.340171	0.000004	0.000005	1.000000	
[LThigh]
#Fr     Tx      Ty      Tz      Rx      Ry      Rz      SF
428	0.000000	0.000000	0.000000	25.758993	-16.298180	-5.806769	1.000000	
429	0.000000	0.000000	0.000000	27.696060	-15.625328	-5.787594	1.000000	
430	0.000000	0.000000	0.000000	29.051298	-14.302076	-5.056869	1.000000	
431	0.000000	0.000000	0.000000	29.812248	-12.637911	-3.779597	1.000000	
432	0.000000	0.000000	0.000000	30.021791	-11.201925	-2.347482	1.000000	
433	0.000000	0.000000	0.000000	29.689732	-10.512661	-1.121623	1.000000	
434	0.000000	0.000000	0.000000	28.768749	-10.664165	-0.213471	1.000000	
[LLowLeg]
#Fr     Tx      Ty      Tz      Rx      Ry      Rz      SF
428	0.000000	0.000000	0.000000	-27.263689	0.000013	-0.000003	1.000000	
429	0.000000	0.000000	0.000000	-27.808451	0.000013	-0.000003	1.000000	
430	0.000000	0.000000	0.000000	-28.260427	0.000013	-0.000003	1.000000	
431	0.000000	0.000000	0.000000	-28.849125	0.000013	-0.000004	1.000000	
432	0.000000	0.000000	0.000000	-29.851677	0.000014	-0.000004	1.000000	
433	0.000000	0.000000	0.000000	-31.404507	0.000014	-0.000004	1.000000	
434	0.000000	0.000000	0.000000	-33.332195	0.000015	-0.000005	1.000000	
[LFoot]
#Fr     Tx      Ty      Tz      Rx      Ry      Rz      SF
428	0.000000	0.000000	0.000000	-10.764768	-2.281747	-7.220503	1.000000	
429	0.000000	0.000000	0.000000	-11.592250	-3.554946	-11.009694	1.000000	
430	0.000000	0.000000	0.000000	-11.774691	-5.992288	-15.016390	1.000000	
431	0.000000	0.000000	0.000000	-11.049112	-9.216573	-18.523922	1.000000	
432	0.000000	0.000000	0.000000	-9.596278	-12.274659	-20.672375	1.000000	
433	0.000000	0.000000	0.000000	-7.936784	-14.193594	-20.844973	1.000000	
434	0.000000	0.000000	0.000000	-6.421288	-14.774062	-19.147772	1.000000	
[LToe]
#Fr     Tx      Ty      Tz      Rx      Ry      Rz      SF
428	0.000000	0.000000	0.000000	6.069929	0.000023	0.000000	1.000000	
429	0.000000	0.000000	0.000000	6.136821	0.000024	0.000000	1.000000	
430	0.000000	0.000000	0.000000	5.990315	0.000023	0.000000	1.000000	
431	0.000000	0.000000	0.000000	5.460742	0.000021	0.000000	1.000000	
432	0.000000	0.000000	0.000000	4.766867	0.000018	0.000000	1.000000	
433	0.000000	0.000000	0.000000	4.308041	0.000017	0.000000	1.000000	
434	0.000000	0.000000	0.000000	4.010544	0.000015	0.000000	1.000000	
[EndOfFile]
